/* XPM */
static char *dummy[]={
"32 32 158 2",
"Qt c #000000",
".v c #000101",
".C c #010102",
".N c #1a3040",
".D c #1a313f",
".# c #1b3242",
".w c #1c3444",
".l c #1d3748",
".c c #1d3749",
".9 c #1e3749",
"aB c #2d536d",
".a c #3c7094",
"ab c #3d7296",
".b c #3d7297",
"#v c #3e7296",
"a. c #3f7397",
"#z c #437598",
"#D c #447699",
"#. c #4f91bd",
"#e c #4f91be",
".3 c #4f92bf",
".O c #4f93c1",
".m c #5091bd",
".d c #5092bf",
".W c #5093c1",
".E c #5094c1",
".x c #5193c0",
".k c #549dcf",
".0 c #559dcf",
"#Z c #559ecf",
".t c #569ecf",
"#8 c #579ecf",
"#q c #589ed0",
"aj c #589fcf",
"#4 c #589fd0",
".R c #599fd0",
"#H c #59a0d0",
"#r c #5a9fd0",
"#1 c #5aa0d1",
".B c #5ba0d1",
"#Q c #5ba1d1",
".u c #5ca1d1",
"aA c #5ea2d1",
"#0 c #5ea2d2",
"#l c #5fa2d2",
"ax c #60a3d1",
"#c c #60a3d2",
"#W c #60a4d2",
".j c #61a3d2",
".S c #61a4d2",
"ah c #61a4d3",
"#y c #62a4d2",
"#P c #63a5d3",
".7 c #64a5d3",
"#m c #64a6d3",
".M c #65a5d4",
"#O c #65a6d3",
"#g c #65a6d4",
"#C c #66a6d4",
"#S c #66a7d4",
"#Y c #67a7d4",
"aw c #67a7d5",
"aa c #68a7d4",
".6 c #68a8d4",
".i c #68a8d5",
"#b c #69a9d4",
"#N c #6aa8d5",
"#K c #6aa9d5",
"#I c #6ba9d5",
"at c #6ba9d6",
"aq c #6caad6",
"#w c #6da9d6",
".H c #6daad6",
".s c #6eaad6",
"ai c #6eabd6",
"#L c #6fabd6",
"#k c #70acd7",
".h c #71acd7",
"an c #72acd8",
"am c #72add7",
"#6 c #72add8",
"#o c #73add8",
"ao c #73aed8",
".Z c #74aed8",
".I c #74aed9",
"#f c #75aed8",
".e c #76afd9",
".X c #76b0d9",
".4 c #77afd8",
"## c #77b0d9",
"a# c #78b0d9",
".1 c #79b0da",
".T c #79b1da",
"#E c #7ab1da",
"ap c #7ab2da",
"#u c #7bb1db",
".P c #7bb2da",
".n c #7cb2da",
"ak c #7cb2db",
"ae c #7cb3db",
"#9 c #7db3da",
".V c #7db3db",
".A c #7eb3db",
"#B c #7fb4db",
".2 c #7fb4dc",
"#U c #80b4db",
"#s c #80b4dc",
"af c #82b5dc",
"az c #82b6dd",
".g c #83b6dd",
"#j c #83b7dc",
"#h c #84b7dd",
".G c #85b7dd",
"ar c #86b7dd",
"#7 c #86b8dd",
".L c #87b8de",
"#x c #87b9de",
".f c #88b9de",
"#T c #89b9df",
"#i c #89badf",
"#G c #8abadf",
"#5 c #8bbadf",
"ac c #8bbbdf",
"#p c #8cbbdf",
"#X c #8cbbe0",
".Q c #8dbbe0",
".J c #8dbce0",
"#d c #8ebce0",
"ag c #8fbde0",
"#M c #8fbde1",
"#J c #90bde0",
"#R c #90bde1",
"au c #90bee1",
".r c #91bde1",
"av c #91bee1",
"#A c #92bee1",
".8 c #93bee1",
"#n c #93bfe1",
".F c #93bfe2",
".5 c #94bfe2",
"#2 c #94c0e2",
"ay c #95bfe2",
".U c #95c0e2",
"#V c #95c0e3",
"as c #96c0e3",
".K c #96c1e3",
"#a c #97c1e3",
".Y c #98c1e3",
"#3 c #98c2e3",
"#t c #98c2e4",
"al c #99c2e3",
".z c #99c2e4",
".o c #9ac2e4",
".y c #9ac3e4",
".q c #9bc3e4",
"#F c #9cc3e4",
"ad c #9cc4e4",
".p c #9cc4e5",
"QtQtQtQtQtQtQtQtQt.#.a.b.b.b.b.b.b.b.b.b.b.b.b.b.b.b.b.b.b.b.b.b",
"QtQtQtQtQtQtQtQt.c.d.e.f.f.f.f.f.f.f.f.f.f.f.f.f.f.g.h.i.i.i.j.k",
"QtQtQtQtQtQtQt.l.m.n.o.p.p.p.p.p.p.p.p.p.p.p.p.p.p.q.r.s.t.k.u.k",
"QtQtQtQtQt.v.w.x.n.y.p.p.p.p.p.p.p.p.p.p.p.p.p.p.p.p.p.z.A.B.u.k",
"QtQtQtQt.C.D.E.n.y.p.p.p.y.F.G.e.h.H.I.A.J.K.q.p.p.p.p.p.q.L.M.k",
"QtQtQt.v.N.O.P.q.p.p.q.Q.s.R.k.k.k.k.k.k.k.S.T.U.q.p.p.p.p.p.V.k",
"QtQtQt.w.W.X.p.p.p.Y.Z.0.k.k.k.k.k.k.k.k.k.k.k.R.1.o.p.p.p.p.2.k",
"QtQt.l.3.4.y.p.p.5.6.k.k.k.k.k.k.k.k.k.k.k.k.k.k.0.7.8.p.p.p.2.k",
"Qt.9#.##.z.p.p#a#b.k.k.k.k.k.k.k.k.k.k.k.k.k.k.k.k.k#c#d.p.p.2.k",
".##e##.z.p.p.q#f.0.k.k.k.k.t#g.T#h#i#j#k#l.0.k.k.k.k.k#m#n.p.2.k",
".a#o.z.p.p.p#p#q.k.k.k.k#r#s#t.p.p.p.p.p.F#u.u.k.k.k.k.k#k.z.2.k",
"#v.5.p.p.p.q#w.k.k.k.k#r#x.p.p.p.p.p.p.p.p.p.Q#y.k.k.k.k#q.L.2.k",
"#z#a.p.p.p#A.0.k.k.k.t#B.p.p.p.p.p.p.p.p.p.p.p#A.S.k.k.k.k#C.A.k",
"#D#a.p.p.p#E.k.k.k.k.6.y.p.p.p.p.p.p.p.p.p.p.p#F#G.0.k.k.k#H#k.k",
"#D#a.p.p.o#I.k.k.k.0.g.p.p.p.p#J#K.u#L#M.q.p.p.p.o#N.k.k.k.k#O.k",
"#D#a.p.p#a#P.k.k.k#Q#R.p.p.p.Y#S.k.k.k.B#T.q.p.p.p#U.k.k.k.k.S.k",
"#D#a.p.p#V.B.k.k.k#W.K.p.p.p#X.R.k.k.k.k#Y.Y.p.p.p#d#Z.k.k.k#c.k",
"#D#a.p.p.K#0.k.k.k#0.F.p.p.p#a#Y.k.k.k.k#1.F.p.p.p#2.t.k.k.k#c.k",
"#D#a.p.p#3#C.k.k.k#4#5.p.p.p.p#2#N.k.k.k#Q.5.p.p.p.F.t.k.k.k#c.k",
"#D#a.p.p.q.h.k.k.k.k#6.p.p.p.p.p.z#f.0.k#I.z.p.p.p.f.0.k.k.k#c.k",
"#D#a.p.p.p#7.k.k.k.k#8#B.p.p.p.p.p.z#9#1#5#F.p.p.q##.k.k.k.k#y.k",
"a..K.p.p.p#t.j.k.k.k.k.Ra##a.p.p.p.p#3#o.5.p.p.p#3.S.k.k.k.taa.k",
"abac.p.p.pad.g.t.k.k.k.k.k#Pae#G#Xaf.i.k#Yag.q.q#h.k.k.k.k.u.e.k",
"ab#L.y.p.p.p.q#o.0.k.k.k.k.k.k.k.k.k.k.k.k.Sac.Fah.k.k.k.kai.2.k",
"abajac.p.p.p.p.z.h.0.k.k.k.k.k.k.k.k.k.k.k.k#c.h.k.k.k.k#4#G.2.k",
"ab.k#Y#a.p.p.p.p.zak#4.k.k.k.k.k.k.k.k.k.k#4afalam.k.k.kan.q.2.k",
"ab.k.kao.z.p.p.p.p.q#R#k#H.k.k.k.k.k.k.t.Hag.q.p.y.P.t.j.5.p.2.k",
"ab.k.k.tap.z.p.p.p.p.p.y#2af#oaqaqai.Pag.o.p.p.p.p.qapar.q.p.2.k",
"ab.k.k.k#8#o#t.p.p.p.p.p.p.p.p.p.p.p.p.p.p.p.p.p.pas#Iaa.r.p.2.k",
"ab.k.k.k.k.katau.q.p.p.p.p.p.p.p.p.p.p.p.p.p.p.qavaw.k.k#P#p.A.k",
"abax.S.S.Sax.k.u.P.5asasasasasasasasasasasasayaz#0.k.k.k.kaA.s.k",
"aBababababababababababababababababababababababababababababababab"};
